<?xml version="1.0" encoding="UTF-8" standalone="no"?>
<!-- Generator: Adobe Illustrator 18.0.0, SVG Export Plug-In . SVG Version: 6.00 Build 0)  -->

<svg
   xmlns:dc="http://purl.org/dc/elements/1.1/"
   xmlns:cc="http://creativecommons.org/ns#"
   xmlns:rdf="http://www.w3.org/1999/02/22-rdf-syntax-ns#"
   xmlns:svg="http://www.w3.org/2000/svg"
   xmlns="http://www.w3.org/2000/svg"
   xmlns:sodipodi="http://sodipodi.sourceforge.net/DTD/sodipodi-0.dtd"
   xmlns:inkscape="http://www.inkscape.org/namespaces/inkscape"
   version="1.1"
   id="Capa_1"
   x="0px"
   y="0px"
   viewBox="0 0 330 330"
   xml:space="preserve"
   inkscape:version="0.91 r13725"
   sodipodi:docname="logo.svg"
   width="330"
   height="330"><metadata
     id="metadata5093"><rdf:RDF><cc:Work
         rdf:about=""><dc:format>image/svg+xml</dc:format><dc:type
           rdf:resource="http://purl.org/dc/dcmitype/StillImage" /><dc:title></dc:title></cc:Work></rdf:RDF></metadata><defs
     id="defs5091" /><sodipodi:namedview
     pagecolor="#ffffff"
     bordercolor="#666666"
     borderopacity="1"
     objecttolerance="10"
     gridtolerance="10"
     guidetolerance="10"
     inkscape:pageopacity="0"
     inkscape:pageshadow="2"
     inkscape:window-width="1440"
     inkscape:window-height="800"
     id="namedview5089"
     showgrid="false"
     inkscape:zoom="1.1237522"
     inkscape:cx="140.15596"
     inkscape:cy="95.259184"
     inkscape:window-x="0"
     inkscape:window-y="1"
     inkscape:window-maximized="1"
     inkscape:current-layer="layer3"
     fit-margin-top="0"
     fit-margin-left="0"
     fit-margin-right="0"
     fit-margin-bottom="0" /><g
     inkscape:groupmode="layer"
     id="layer3"
     inkscape:label="other 1"
     style="display:inline"
     transform="translate(13.530537,33.99915)"><g
       id="g6110"
       transform="matrix(0.7937299,0,0,1.1609136,-16.546579,-28.603357)"><g
         transform="matrix(1.1836016,0,0,1.1836016,-94.041408,-120.06754)"
         id="g6021"><path
           id="path6023"
           d="m 397.328,217.197 c 0.447,-3.248 0.697,-6.559 0.697,-9.93 0,-39.793 -32.258,-72.049 -72.049,-72.049 -8.014,0 -15.711,1.328 -22.912,3.742 -12.588,-10.756 -28.912,-17.266 -46.768,-17.266 -28.029,0 -52.303,16.018 -64.215,39.387 -4.08,-0.848 -8.307,-1.295 -12.639,-1.295 -23.551,0 -44.027,13.152 -54.492,32.51 -21.65,1.576 -38.727,19.623 -38.727,41.674 0,11.09 4.326,21.162 11.373,28.645 -9.127,7.666 -14.932,19.158 -14.932,32.01 0,23.084 18.713,41.797 41.797,41.797 l 245.326,0 c 34.676,0 62.789,-28.111 62.789,-62.789 0.002,-24.797 -14.377,-46.231 -35.248,-56.436 z"
           style="fill:#77bc1f"
           inkscape:connector-curvature="0" /><path
           id="path6025"
           d="m 256.297,121.695 c -28.029,0 -52.303,16.018 -64.215,39.387 -4.08,-0.848 -8.307,-1.295 -12.639,-1.295 -23.551,0 -44.027,13.152 -54.492,32.51 -21.65,1.576 -38.727,19.623 -38.727,41.674 0,11.09 4.326,21.162 11.373,28.645 -9.127,7.666 -14.932,19.158 -14.932,32.01 0,23.084 18.713,41.797 41.797,41.797 l 132.373,0 0,-214.714 c -0.181,-0.002 -0.358,-0.014 -0.538,-0.014 z"
           style="opacity:0.3;fill:#218649"
           inkscape:connector-curvature="0" /></g><g
         transform="matrix(1.1836016,0,0,1.1836016,-94.041408,-120.06754)"
         id="g6045"
         style="opacity:0.2"><path
           id="path6047"
           d="m 116.789,243.848 c -4.143,0 -7.5,-3.357 -7.5,-7.5 l 0,-26.842 c 0,-4.143 3.357,-7.5 7.5,-7.5 4.143,0 7.5,3.357 7.5,7.5 l 0,26.842 c 0,4.142 -3.357,7.5 -7.5,7.5 z"
           style="fill:#222222"
           inkscape:connector-curvature="0" /><path
           id="path6049"
           d="m 177.789,313.176 c -4.143,0 -7.5,-3.357 -7.5,-7.5 l 0,-27.846 c 0,-4.143 3.357,-7.5 7.5,-7.5 4.143,0 7.5,3.357 7.5,7.5 l 0,27.846 c 0,4.142 -3.357,7.5 -7.5,7.5 z"
           style="fill:#222222"
           inkscape:connector-curvature="0" /><path
           id="path6051"
           d="m 269.789,236.559 c -4.143,0 -7.5,-3.357 -7.5,-7.5 l 0,-19.553 c 0,-4.143 3.357,-7.5 7.5,-7.5 4.143,0 7.5,3.357 7.5,7.5 l 0,19.553 c 0,4.142 -3.357,7.5 -7.5,7.5 z"
           style="fill:#222222"
           inkscape:connector-curvature="0" /><path
           id="path6053"
           d="m 233.447,281.852 c -4.143,0 -7.5,-3.357 -7.5,-7.5 l 0,-27.182 c 0,-4.143 3.357,-7.5 7.5,-7.5 4.143,0 7.5,3.357 7.5,7.5 l 0,27.182 c 0,4.142 -3.357,7.5 -7.5,7.5 z"
           style="fill:#222222"
           inkscape:connector-curvature="0" /></g></g></g><g
     id="g5059"
     transform="translate(13.530537,33.99915)" /><g
     id="g5061"
     transform="translate(13.530537,33.99915)" /><g
     id="g5063"
     transform="translate(13.530537,33.99915)" /><g
     id="g5065"
     transform="translate(13.530537,33.99915)" /><g
     id="g5067"
     transform="translate(13.530537,33.99915)" /><g
     id="g5069"
     transform="translate(13.530537,33.99915)" /><g
     id="g5071"
     transform="translate(13.530537,33.99915)" /><g
     id="g5073"
     transform="translate(13.530537,33.99915)" /><g
     id="g5075"
     transform="translate(13.530537,33.99915)" /><g
     id="g5077"
     transform="translate(13.530537,33.99915)" /><g
     id="g5079"
     transform="translate(13.530537,33.99915)" /><g
     id="g5081"
     transform="translate(13.530537,33.99915)" /><g
     id="g5083"
     transform="translate(13.530537,33.99915)" /><g
     id="g5085"
     transform="translate(13.530537,33.99915)" /><g
     id="g5087"
     transform="translate(13.530537,33.99915)" /><g
     inkscape:groupmode="layer"
     id="layer1"
     inkscape:label="bottle"
     transform="translate(13.530537,33.99915)"><g
       id="g6242"
       transform="matrix(1,0,0,1.1078637,0.5492761,-33.034683)"><path
         id="path6244"
         d="m 98.917,297 99.166,0 c 9.067,0 16.417,-7.35 16.417,-16.417 l 0,-165.166 C 214.5,106.35 207.15,99 198.083,99 L 98.917,99 C 89.85,99 82.5,106.35 82.5,115.417 l 0,165.166 C 82.5,289.65 89.85,297 98.917,297 Z"
         style="fill:#f3f3e9"
         inkscape:connector-curvature="0" /></g><g
       id="g6246"
       style="opacity:0.6"
       transform="matrix(1,0,0,1.1078637,0.5492761,-33.034683)"><path
         id="path6248"
         d="m 198.083,99 -0.083,0 0,165.083 c 0,9.067 -7.35,16.417 -16.417,16.417 l -99.083,0 0,0.083 C 82.5,289.65 89.85,297 98.917,297 l 99.167,0 c 9.067,0 16.417,-7.35 16.417,-16.417 l 0,-165.166 C 214.5,106.35 207.15,99 198.083,99 Z"
         style="fill:#bdc3c7"
         inkscape:connector-curvature="0" /></g><g
       id="g6250"
       transform="matrix(1,0,0,1.1078637,0.5492761,-33.034683)"><g
         id="g6252"><path
           id="path6254"
           d="M 106.833,66 C 102.507,66 99,69.507 99,73.833 L 99,99 l 84.5,0 0,-33 -76.667,0 z"
           style="fill:#edb7ab"
           inkscape:connector-curvature="0" /></g></g><g
       id="g6256"
       transform="matrix(1,0,0,1.1078637,0.5492761,-33.034683)"><g
         id="g6258"><path
           id="path6260"
           d="M 198,73.833 C 198,69.507 194.493,66 190.167,66 l -6.667,0 0,33 14.5,0 0,-25.167 z"
           style="fill:#f36e81"
           inkscape:connector-curvature="0" /></g></g><g
       id="g6262"
       transform="matrix(1,0,0,1.1078637,0.5492761,-33.034683)"
       style="fill:#f9e9c0;fill-opacity:1;stroke:none;stroke-opacity:1"><g
         id="g6264"
         style="fill:#f9e9c0;fill-opacity:1;stroke:none;stroke-opacity:1"><path
           id="path6266"
           d="M 174.583,49.5 165,49.5 C 158.693,43.193 154,36.179 156.964,30.645 159.61,25.703 165,22.514 165,16.5 165,7.387 157.613,0 148.5,0 139.387,0 132,7.387 132,16.5 c 0,6.014 5.39,9.203 8.036,14.145 C 143,36.179 138.307,43.193 132,49.5 l -9.583,0 c -3.82,0 -6.917,3.097 -6.917,6.917 l 0,9.583 66,0 0,-9.583 c 0,-3.82 -3.097,-6.917 -6.917,-6.917 z"
           style="fill:#f9e9c0;fill-opacity:1;stroke:none;stroke-opacity:1"
           inkscape:connector-curvature="0" /></g></g><g
       id="g6268"
       transform="matrix(1,0,0,1.1078637,0.5492761,-33.034683)"><g
         id="g6270"><path
           id="path6272"
           d="m 110.084,280.5 76.833,0 c 6.121,0 11.083,-4.962 11.083,-11.083 L 198,165 l -99,0 0,104.417 c 0,6.121 4.962,11.083 11.084,11.083 z"
           style="fill:#f5db91"
           inkscape:connector-curvature="0" /></g></g><g
       id="g6274"
       transform="translate(284.86907,151.16963)" /><g
       id="g6276"
       transform="translate(284.86907,151.16963)" /><g
       id="g6278"
       transform="translate(284.86907,151.16963)" /><g
       id="g6280"
       transform="translate(284.86907,151.16963)" /><g
       id="g6282"
       transform="translate(284.86907,151.16963)" /><g
       id="g6284"
       transform="translate(284.86907,151.16963)" /><g
       id="g6286"
       transform="translate(284.86907,151.16963)" /><g
       id="g6288"
       transform="translate(284.86907,151.16963)" /><g
       id="g6290"
       transform="translate(284.86907,151.16963)" /><g
       id="g6292"
       transform="translate(284.86907,151.16963)" /><g
       id="g6294"
       transform="translate(284.86907,151.16963)" /><g
       id="g6296"
       transform="translate(284.86907,151.16963)" /><g
       id="g6298"
       transform="translate(284.86907,151.16963)" /><g
       id="g6300"
       transform="translate(284.86907,151.16963)" /><g
       id="g6302"
       transform="translate(284.86907,151.16963)" /></g><g
     inkscape:groupmode="layer"
     id="layer2"
     inkscape:label="other"
     transform="translate(13.530537,33.99915)"><g
       id="g5760"
       transform="matrix(0.64248619,1.1012658,-0.9940444,0.71178716,177.62337,-344.81719)"><path
         inkscape:connector-curvature="0"
         style="fill:#00953a"
         d="m 367.26,177.16 c 19.596,-19.6 17.742,-53.227 17.742,-53.227 0,0 -33.631,-1.855 -53.227,17.74 -19.598,19.598 -17.744,53.229 -17.744,53.229 0,0 33.629,1.856 53.229,-17.742 z"
         id="path5762" /><path
         inkscape:connector-curvature="0"
         style="opacity:0.2;fill:#222222"
         d="m 314.031,194.902 c 0,0 33.629,1.855 53.228,-17.742 19.596,-19.6 17.742,-53.227 17.742,-53.227 l -70.97,70.969 z"
         id="path5764" /></g><g
       id="g5766"
       transform="matrix(0.75637399,1.0085887,-0.9103906,0.83795932,129.33981,-346.39809)"><path
         inkscape:connector-curvature="0"
         style="fill:#00953a"
         d="m 278.268,146.34 c 0,-27.717 25.09,-50.184 25.09,-50.184 0,0 25.092,22.467 25.092,50.182 0,27.715 -25.092,50.184 -25.092,50.184 0,0 -25.09,-22.467 -25.09,-50.182 z"
         id="path5768" /><path
         inkscape:connector-curvature="0"
         style="opacity:0.2;fill:#222222"
         d="m 303.358,196.521 c 0,0 -25.09,-22.467 -25.09,-50.182 0,-27.717 25.09,-50.184 25.09,-50.184 l 0,100.366 z"
         id="path5770" /></g></g></svg>